#!OML:ASF F:\VICON\USERDATA\INSTALL\rory3\rory3.ASF
:FULLY-SPECIFIED
:DEGREES
52
root 0.3941420439364334 17.575761169354664 30.71357113369278 1.0460343399151197 2.1254109639740593 2.7945514682719
lfemur 9.369537423519848 -2.0402690991107413 -29.992111424521163
ltibia 21.416930545177085
lfoot -20.01155284888458 0.2960759399695134
ltoes -2.7991757339014667
rfemur -41.8192560149681 -0.06589559492828245 18.0246519495471
rtibia 47.131792478080094
rfoot -2.593238090538033 -17.607552743475736
rtoes -2.8504010879197113
lowerback 12.457003706499053 -0.670124607976275 -4.591654710777055
upperback -0.027007270591240196 -1.4301064951746425 0.604051921299243
thorax -7.1188191244446655 -0.5276123671312967 3.886101395142407
lowerneck -18.64352697994785 -2.7256224292830304 -2.8735041778117827
upperneck 16.21060658605144 -3.59391965660734 2.9145924821274765
head 8.257901277129347 -1.5381870143370224 0.956689402804523
lclavicle -2.4731100206787052e-15 5.365083611529954e-16
lhumerus -25.219794185536664 -13.924715211814956 89.57673772555343
lradius 69.94809320831416
lwrist 21.39928997140578
lhand -26.144669818649596 13.742817639037213
lfingers 7.125019999999999
lthumb 0.4059885392101752 43.721803211070885
rclavicle -2.4731100206787052e-15 5.365083611529954e-16
rhumerus -44.55158443816688 -6.533289665357405 -88.4261139827756
rradius 66.95643370423026
rwrist -2.8290285750054545
rhand -16.61409595859859 31.492412227560532
rfingers 7.125019999999999
rthumb 9.607414900948614 1.7625423302980197
53
root 0.3180376708686988 17.410180348915574 32.04991852398205 2.074657337134778 3.1826246223383245 3.1455365744169286
lfemur 15.248518570860718 -2.0966454641383603 -29.8956684648459
ltibia 16.81025573973953
lfoot -19.93916405781744 -0.70074072277782
ltoes -6.812369327754809
rfemur -40.77021352885764 3.029387353049554 16.763616690815034
rtibia 30.55273372674742
rfoot -2.6012205694505557 -19.55555897528745
rtoes -5.270597229110789
lowerback 11.78868217926303 -1.046975941517834 -5.291293355837967
upperback -0.22307242130931715 -2.009674772171806 0.7187086215013807
thorax -6.915846554156335 -0.7848942995295534 4.571822359570874
lowerneck -18.795959874248105 -2.716703551752791 -2.921458687356976
upperneck 16.008778054463953 -3.601409966380749 3.03345349025657
head 8.210376647384901 -1.5210146194623038 1.0008065750791717
lclavicle -2.2943393677916674e-15 6.618485895478419e-16
lhumerus -21.22508379822919 -14.792874077342468 89.07330312395854
lradius 72.47899915031722
lwrist 22.29179521207188
lhand -26.43101801321719 13.365801552425511
lfingers 7.125019999999999
lthumb 0.12944187293122994 43.33997791965778
rclavicle -2.2943393677916674e-15 6.618485895478419e-16
rhumerus -46.0098772911994 -7.525192197645826 -87.50783935975502
rradius 66.07934091419727
rwrist -2.0445912887616258
rhand -16.63800326351385 31.6792897202384
rfingers 7.125019999999999
rthumb 9.584337523348479 1.9130088013946471
54
root 0.21555699129608885 17.218447508426273 33.00096155636891 2.5183948132888716 3.774576221384728 3.059112411545804
lfemur 19.699333529863555 -3.027840465250884 -29.45918896101262
ltibia 16.090197136696176
lfoot -18.78638286993309 -2.1255708517764145
ltoes -12.407575954071497
rfemur -39.88329745793305 4.366219867428437 16.828177086196938
rtibia 24.337632170850274
rfoot -1.910741105182789 -17.372171207766677
rtoes -7.367570279034998
lowerback 11.457110730833007 -1.2937208634644408 -5.4554088222873895
upperback -0.3087497061294405 -2.344107933360818 0.9739860306811776
thorax -6.797250191339506 -0.9383561357504673 4.991323511678228
lowerneck -19.000840610862255 -2.6539780309927727 -2.9319204740041784
upperneck 16.016019591869625 -3.5036680047340902 2.9508784025264427
head 8.225760615942779 -1.4749580390575656 0.984455724969533
lclavicle -2.1983228361139596e-15 7.291679984205572e-16
lhumerus -19.08021174719095 -14.747862504691845 88.80740970187638
lradius 74.3320441604533
lwrist 22.812352592515285
lhand -27.021521449360165 12.262935753320141
lfingers 7.125019999999999
lthumb -0.4408156555820902 42.23059921355273
rclavicle -2.1983228361139596e-15 7.291679984205572e-16
rhumerus -47.547956149344664 -9.260242507488565 -86.13195773545773
rradius 64.71144504754025
rwrist -0.643656475390104
rhand -16.920844972173903 31.647902767612
rfingers 7.125019999999999
rthumb 9.311434203722591 1.8455521210376515
55
root 0.10292760070623515 17.092781470562628 33.5252339461459 2.3345378899821303 3.822904556647811 2.387296892445328
lfemur 21.701077001212113 -4.420742703879558 -28.73526686552601
ltibia 19.593549420849325
lfoot -15.358671849334069 -4.3787655821720115
ltoes -18.605504668853243
rfemur -40.149257259155874 3.9042164083045825 18.16450658658908
rtibia 27.202755024027198
rfoot -0.16205340311966654 -12.601935848783597
rtoes -7.14067466572396
lowerback 11.396256847219504 -1.470112410368631 -5.064307737592236
upperback -0.3080812810833366 -2.5143683513653596 1.394179363992738
thorax -6.777308843827281 -1.0246180838906707 5.07021805032146
lowerneck -19.160356578389585 -2.5100679595577033 -2.9128454832285557
upperneck 16.196075109772373 -3.2492873938272164 2.616109664051721
head 8.280051751534312 -1.3858473554371313 0.9044318072107258
lclavicle -2.630692729308515e-15 4.2602349321856357e-16
lhumerus -19.048100137283097 -13.986678265896561 88.89489112544393
lradius 75.3634361210105
lwrist 22.94505595656538
lhand -27.848820604314263 11.060347984519632
lfingers 7.125019999999999
lthumb -1.2397604719298327 41.02190716266029
rclavicle -2.630692729308515e-15 4.2602349321856357e-16
rhumerus -49.30523361911163 -11.622180418522488 -84.50028150154624
rradius 62.92671994147248
rwrist 1.0553842760136072
rhand -17.216157830009525 31.47324942755652
rfingers 7.125019999999999
rthumb 9.026503201836578 1.6678554512339483
56
root 0.0004124477475612176 17.10975314334621 33.958002922093456 1.7647212358636195 3.584345887121886 1.1836893773435824
lfemur 21.349274712709665 -5.554988740642309 -27.11387501405445
ltibia 27.863199123247664
lfoot -7.441769560294508 -7.704659295550507
ltoes -22.464317920989078
rfemur -40.01827666222827 2.8696481310843356 20.626635185885743
rtibia 34.761413436797056
rfoot 2.2994038504740084 -7.40178945146943
rtoes -2.526077434701154
lowerback 11.483796919081424 -1.5760836769810518 -3.990910579581551
upperback -0.31464476372281763 -2.5084240314397794 1.989528265085866
thorax -6.83789138353769 -1.0395422798409135 4.903092948050982
lowerneck -19.08463129255134 -2.253415417140058 -2.8438254699371774
upperneck 16.5359568079452 -2.8138543101838343 2.1481236981241345
head 8.348712424450351 -1.237945087957704 0.8016807654497582
lclavicle -2.81462825203221e-15 2.970620537496333e-16
lhumerus -20.68309486069825 -12.586248181835447 89.34575862574022
lradius 75.78864121761458
lwrist 22.842046015902227
lhand -28.334958702655257 10.507905930178259
lfingers 7.125019999999999
lthumb -1.7092432655626568 40.46572227741292
rclavicle -2.81462825203221e-15 2.970620537496333e-16
rhumerus -51.01021379169601 -14.040357756917022 -82.67219136560502
rradius 61.118990652158935
rwrist 2.8243986293018746
rhand -17.275171625531677 31.24741346595636
rfingers 7.125019999999999
rthumb 8.9695953591451 1.4800253258349594
57
root -0.09616061930560672 17.28951758896634 34.14474894742803 1.02336086184793 3.21353964142555 -0.4838153109113519
lfemur 17.759954780688716 -5.902650311463983 -24.429621652637465
ltibia 40.34749285114865
lfoot 4.96651263096191 -12.078351464782758
ltoes -20.94082803115571
rfemur -38.05332234953937 2.286972664663371 23.706213160449686
rtibia 41.514885902706894
rfoot 3.7847592515107236 -3.7291322375506413
rtoes 4.97137614747628
lowerback 11.649929828523465 -1.6195968801760254 -2.368182809011812
upperback -0.39076547446274423 -2.3490484175038806 2.652762987294353
thorax -6.980812419688506 -0.9925447154689366 4.4656385067543125
lowerneck -18.766410867428828 -2.017957912901514 -2.7563345869980687
upperneck 16.94250496103467 -2.4279593676693345 1.7612751875984987
head 8.405291653342035 -1.1143288399095224 0.7169462466325732
lclavicle -2.875133222556412e-15 2.5464061768997183e-16
lhumerus -23.796176848500945 -11.249020520464832 90.04700830068873
lradius 75.6068093110854
lwrist 22.462042621312822
lhand -27.963846632291606 10.795720659991225
lfingers 7.125019999999999
lthumb -1.3508385380640353 40.75469513826637
rclavicle -2.875133222556412e-15 2.5464061768997183e-16
rhumerus -52.262336007475085 -15.700533077369347 -81.2884739081554
rradius 59.875883336072576
rwrist 4.013134354204446
rhand -17.082879665100393 31.1130875706056
rfingers 7.125019999999999
rthumb 9.1551940663276 1.3996132161448442
58
root -0.1894287738026071 17.593742262808355 34.677372919743846 0.34401387359698343 2.9020642730224715 -2.1783621333327514
lfemur 11.203783148767656 -5.012434648073823 -21.082189827139693
ltibia 55.17364981080244
lfoot 17.603110673472482 -16.03012745068538
ltoes -14.215322908420895
rfemur -33.40389344254193 2.5812480140617944 26.79628232724941
rtibia 44.36144548211416
rfoot 3.226724245150101 -2.474042711093159
rtoes 11.5960480627006
lowerback 11.897330950106808 -1.5175295164805465 -0.5622372889621314
upperback -0.44882565034030764 -1.9696623492001901 3.2187756744583944
thorax -7.135966884202113 -0.8486807938650627 3.8649762195228137
lowerneck -18.348433174731976 -1.9883553476043139 -2.6734077826796185
upperneck 17.306583551509565 -2.390255881057292 1.6957867667944475
head 8.448925482250297 -1.1204463419259572 0.6945260124031781
lclavicle -2.5404982307736577e-15 4.892609276348635e-16
lhumerus -27.344334024896952 -10.573040401279245 90.878264697393
lradius 74.95701151676921
lwrist 21.7650174101831
lhand -26.888912347716275 11.464203009459043
lfingers 7.125019999999999
lthumb -0.31270351363462406 41.42970571169253
rclavicle -2.5404982307736577e-15 4.892609276348635e-16
rhumerus -52.26562530130549 -15.638339368044278 -81.14350781945602
rradius 59.77515509600529
rwrist 4.048772469559539
rhand -16.666015403165822 31.318721012838527
rfingers 7.125019999999999
rthumb 9.557496357018843 1.642126487495712
